<svg width="254" height="219" viewBox="0 0 254 219" fill="none" xmlns="http://www.w3.org/2000/svg">
<path d="M51.9581 78.5848C87.1206 99.356 80.308 158.548 41.8778 158.043C25.303 157.825 11.1222 145.185 4.94422 129.182C-9.32259 92.222 21.7692 60.7454 51.9581 78.5848Z" fill="#FAC663" fill-opacity="0.15"/>
<path d="M88.2493 86.4024C45.7404 85.8439 33.9602 13.5396 74.5016 2.2106C92.9724 -2.94921 113.725 10.2865 120.134 34.0673C127.325 60.7219 112.147 86.7164 88.2493 86.4024Z" fill="#FAC663" fill-opacity="0.15"/>
<path d="M97.4949 214.952C103.42 213.398 113.911 212.486 124.88 212.478C136.475 212.461 148.601 213.45 156.425 215.726C177.557 221.909 206.605 208.003 200.662 178.252C195.166 150.747 174.101 152.033 169.466 125.975C164.797 99.6388 145.477 86.7047 126.523 87.4468C108.98 88.1361 91.7523 100.545 86.7823 124.894C81.493 150.84 60.5127 148.987 54.304 176.328C47.5586 205.937 76.2924 220.525 97.4949 214.952Z" fill="#FAC663" fill-opacity="0.15"/>
<path d="M163.064 87.3879C151.04 87.2299 140.805 80.1153 135.207 69.3588C118.566 37.374 147.16 -6.22645 179.021 3.61012C219.32 16.0341 205.549 87.9462 163.064 87.3879Z" fill="#FAC663" fill-opacity="0.15"/>
<path d="M181.639 136.257C168.428 102.704 201.317 62.3631 232.048 75.596C269.064 91.5338 251.773 157.95 210.849 157.412C197.715 157.239 186.66 149.013 181.639 136.257Z" fill="#FAC663" fill-opacity="0.15"/>
</svg>
